<?xml version="1.0" encoding="UTF-8" standalone="no"?>
<!-- Created with Inkscape (http://www.inkscape.org/) -->

<svg
   width="45.720001mm"
   height="128.5mm"
   viewBox="0 0 45.720002 128.5"
   version="1.1"
   id="svg1"
   inkscape:version="1.4.3 (0d15f75042, 2025-12-25)"
   sodipodi:docname="Chrysalis.svg"
   xml:space="preserve"
   xmlns:inkscape="http://www.inkscape.org/namespaces/inkscape"
   xmlns:sodipodi="http://sodipodi.sourceforge.net/DTD/sodipodi-0.dtd"
   xmlns="http://www.w3.org/2000/svg"
   xmlns:svg="http://www.w3.org/2000/svg"><sodipodi:namedview
     id="namedview1"
     pagecolor="#ffffff"
     bordercolor="#000000"
     borderopacity="0.25"
     inkscape:showpageshadow="2"
     inkscape:pageopacity="0.0"
     inkscape:pagecheckerboard="0"
     inkscape:deskcolor="#d1d1d1"
     inkscape:document-units="mm"
     inkscape:zoom="13.777614"
     inkscape:cx="80.674348"
     inkscape:cy="496.20349"
     inkscape:window-width="1920"
     inkscape:window-height="1200"
     inkscape:window-x="0"
     inkscape:window-y="0"
     inkscape:window-maximized="1"
     inkscape:current-layer="layer1"
     showguides="false" /><defs
     id="defs1"><rect
       x="22.670731"
       y="310.0556"
       width="79.347557"
       height="32.005737"
       id="rect6" /><rect
       x="28.00502"
       y="62.011116"
       width="70.01255"
       height="64.011475"
       id="rect5" /><rect
       x="16.002869"
       y="51.342537"
       width="89.34935"
       height="36.673241"
       id="rect2" /><linearGradient
       id="bf94f4d5-a991-4108-95fc-97ebe2ba2b63"
       x1="60"
       x2="60"
       y2="380"
       gradientUnits="userSpaceOnUse"><stop
         offset="0"
         stop-color="#ebebeb"
         id="stop2" /><stop
         offset="1"
         stop-color="#e1e1e1"
         id="stop4" /></linearGradient></defs><g
     inkscape:label="Layer 1"
     inkscape:groupmode="layer"
     id="layer1"><path
       id="rect1"
       style="fill:#e6e6e6;stroke-width:1.05671"
       d="M -0.00173304,0.01744382 H 45.725281 V 128.52974 H -0.00173304 Z" /><g
       id="text4"
       style="font-size:3.58533px;text-align:center;text-anchor:middle;display:inline;fill:#4e4e4e;stroke-width:0.268899"
       transform="matrix(0.98394943,0,0,1.0163124,8.0523719,-1.0338436)"
       aria-label="C/S&#10;celestial sound"><path
         style="font-weight:bold;-inkscape-font-specification:'sans-serif Bold'"
         d="m 14.03562,113.79567 q -0.308338,0 -0.487605,0.23305 -0.175681,0.22946 -0.175681,0.6346 0,0.40514 0.168511,0.63102 0.172095,0.22229 0.516287,0.22229 0.168511,0 0.32268,-0.0394 0.157754,-0.0394 0.315509,-0.10039 v 0.46609 q -0.304753,0.12907 -0.699139,0.12907 -0.408728,0 -0.674043,-0.16134 -0.261729,-0.16492 -0.3908,-0.45892 -0.125487,-0.29758 -0.125487,-0.69197 0,-0.38721 0.143413,-0.68479 0.143413,-0.29759 0.419484,-0.4661 0.27607,-0.16851 0.674042,-0.16851 0.190022,0 0.38363,0.043 0.197193,0.0394 0.372874,0.12548 l -0.179266,0.43741 q -0.129072,-0.061 -0.27607,-0.10397 -0.143414,-0.0466 -0.308339,-0.0466 z m 2.344807,-0.441 -0.953698,2.60295 h -0.49119 l 0.953698,-2.60295 z m 1.850033,1.87155 q 0,0.3406 -0.247387,0.54497 -0.243803,0.20077 -0.695554,0.20077 -0.405143,0 -0.724237,-0.15416 v -0.50554 q 0.182852,0.0789 0.37646,0.147 0.197193,0.0645 0.390801,0.0645 0.200778,0 0.283241,-0.0753 0.08605,-0.0789 0.08605,-0.1972 0,-0.0968 -0.06812,-0.16492 -0.06454,-0.0681 -0.175681,-0.12549 -0.111145,-0.0609 -0.254558,-0.12907 -0.08963,-0.043 -0.193608,-0.10039 -0.103975,-0.061 -0.200779,-0.147 -0.09322,-0.0896 -0.154169,-0.21512 -0.06095,-0.12548 -0.06095,-0.30117 0,-0.34419 0.233046,-0.53421 0.233046,-0.19361 0.634603,-0.19361 0.200779,0 0.380045,0.0466 0.182852,0.0466 0.380045,0.13266 l -0.175681,0.42307 q -0.175681,-0.0717 -0.315509,-0.11115 -0.139828,-0.0394 -0.286826,-0.0394 -0.154169,0 -0.236632,0.0717 -0.08246,0.0717 -0.08246,0.18644 0,0.13624 0.121902,0.21512 0.121901,0.0789 0.362118,0.19361 0.197193,0.0932 0.333436,0.1936 0.139827,0.10039 0.215119,0.23664 0.07529,0.13624 0.07529,0.33702 z"
         id="path1" /><path
         style="font-weight:bold;font-size:2.1512px;-inkscape-font-specification:'sans-serif Bold'"
         d="m 8.1373861,120.43929 q -0.1699448,0 -0.2990168,-0.0624 -0.1269208,-0.0645 -0.1979104,-0.19791 -0.07099,-0.13337 -0.07099,-0.34204 0,-0.21512 0.077443,-0.35065 0.077443,-0.13767 0.2108176,-0.20006 0.1333744,-0.0645 0.3033192,-0.0645 0.1011064,0 0.193608,0.0215 0.092502,0.0215 0.1634912,0.0581 l -0.096804,0.24524 q -0.064536,-0.028 -0.1312232,-0.0452 -0.064536,-0.0194 -0.129072,-0.0194 -0.1247696,0 -0.193608,0.0882 -0.066687,0.0882 -0.066687,0.2646 0,0.17425 0.066687,0.25814 0.068838,0.0839 0.1893056,0.0839 0.09035,0 0.1742472,-0.0237 0.083897,-0.0258 0.1548864,-0.0667 v 0.2646 q -0.068838,0.0409 -0.1527352,0.0645 -0.081746,0.0237 -0.1957592,0.0237 z m 1.0992649,-1.21758 q 0.2452368,0 0.3850648,0.13767 0.1419792,0.13768 0.1419792,0.39582 v 0.15704 H 9.0086238 q 0.00645,0.13338 0.081746,0.21082 0.077443,0.0753 0.2215736,0.0753 0.1097112,0 0.2000616,-0.0215 0.09035,-0.0215 0.1850032,-0.0645 v 0.24309 q -0.086048,0.043 -0.182852,0.0624 -0.096804,0.0215 -0.236632,0.0215 -0.1742472,0 -0.3097728,-0.0645 -0.1333744,-0.0667 -0.2108176,-0.20006 -0.077443,-0.13338 -0.077443,-0.33559 0,-0.30762 0.1527352,-0.46251 0.1548864,-0.15488 0.4044256,-0.15488 z m 0.0086,0.23018 q -0.096804,0 -0.1591888,0.0624 -0.060234,0.0602 -0.068838,0.1807 h 0.4431472 q -0.00215,-0.10541 -0.055931,-0.17425 -0.051629,-0.0688 -0.1591888,-0.0688 z m 1.099263,0.96588 h -0.324831 v -1.63491 h 0.324831 z m 0.817457,-1.19606 q 0.245237,0 0.385065,0.13767 0.141979,0.13768 0.141979,0.39582 v 0.15704 h -0.755071 q 0.0065,0.13338 0.08175,0.21082 0.07744,0.0753 0.221573,0.0753 0.109711,0 0.200062,-0.0215 0.09035,-0.0215 0.185003,-0.0645 v 0.24309 q -0.08605,0.043 -0.182852,0.0624 -0.0968,0.0215 -0.236632,0.0215 -0.174247,0 -0.309773,-0.0645 -0.133374,-0.0667 -0.210817,-0.20006 -0.07744,-0.13338 -0.07744,-0.33559 0,-0.30762 0.152736,-0.46251 0.154886,-0.15488 0.404425,-0.15488 z m 0.0086,0.23018 q -0.0968,0 -0.159189,0.0624 -0.06023,0.0602 -0.06884,0.1807 h 0.443147 q -0.0022,-0.10541 -0.05593,-0.17425 -0.05163,-0.0688 -0.159189,-0.0688 z m 1.606946,0.61954 q 0,0.16779 -0.120467,0.2689 -0.118316,0.099 -0.365704,0.099 -0.124769,0 -0.219422,-0.0172 -0.09465,-0.0151 -0.182852,-0.0516 v -0.2689 q 0.09465,0.0452 0.202213,0.071 0.109711,0.0258 0.191456,0.0258 0.09896,0 0.14198,-0.028 0.04518,-0.028 0.04518,-0.0753 0,-0.0323 -0.02366,-0.0581 -0.02151,-0.0258 -0.0796,-0.0538 -0.05593,-0.028 -0.16134,-0.0688 -0.157037,-0.0624 -0.238783,-0.13767 -0.07959,-0.0774 -0.07959,-0.22373 0,-0.16349 0.12692,-0.24739 0.129072,-0.0839 0.33989,-0.0839 0.111862,0 0.210818,0.0237 0.09896,0.0237 0.200061,0.0667 l -0.09465,0.22157 q -0.08174,-0.0366 -0.167793,-0.0602 -0.08605,-0.0237 -0.152735,-0.0237 -0.154887,0 -0.154887,0.0861 0,0.0323 0.02151,0.0559 0.02366,0.0215 0.0796,0.0473 0.05808,0.0258 0.16134,0.0667 0.105408,0.043 0.176398,0.0882 0.07314,0.0452 0.10756,0.11186 0.03657,0.0645 0.03657,0.16564 z m 0.752923,0.11186 q 0.05378,0 0.103257,-0.0108 0.04948,-0.0108 0.09896,-0.0258 v 0.23879 q -0.05163,0.0215 -0.129072,0.0366 -0.07529,0.0172 -0.165642,0.0172 -0.105409,0 -0.189306,-0.0344 -0.08174,-0.0344 -0.131223,-0.11832 -0.04733,-0.0861 -0.04733,-0.23663 v -0.56577 h -0.152735 v -0.13552 l 0.176398,-0.10756 0.0925,-0.24739 h 0.204364 v 0.24954 h 0.329133 v 0.24093 h -0.329133 v 0.56577 q 0,0.0667 0.03872,0.10111 0.03872,0.0323 0.101107,0.0323 z m 0.59373,-1.40258 q 0.07099,0 0.122619,0.0344 0.05378,0.0323 0.05378,0.12477 0,0.0882 -0.05378,0.12262 -0.05163,0.0344 -0.122619,0.0344 -0.07314,0 -0.124769,-0.0344 -0.05163,-0.0344 -0.05163,-0.12262 0,-0.0925 0.05163,-0.12477 0.05163,-0.0344 0.124769,-0.0344 z m 0.16134,0.46251 v 1.17455 h -0.324831 v -1.17455 z m 0.841119,-0.0215 q 0.219423,0 0.335588,0.10541 0.118316,0.10325 0.118316,0.30762 v 0.78303 h -0.225876 l -0.06238,-0.15918 h -0.0086 q -0.07744,0.0947 -0.16134,0.13767 -0.08175,0.043 -0.230178,0.043 -0.154887,0 -0.258144,-0.0904 -0.103258,-0.0904 -0.103258,-0.27751 0,-0.18285 0.133374,-0.27535 0.133375,-0.0947 0.397972,-0.10541 l 0.19576,-0.006 v -0.0366 q 0,-0.1054 -0.04948,-0.14628 -0.04733,-0.043 -0.131223,-0.043 -0.07959,0 -0.163491,0.0258 -0.0839,0.0258 -0.165643,0.0624 l -0.09465,-0.22158 q 0.0925,-0.0473 0.210818,-0.0753 0.120467,-0.028 0.262446,-0.028 z m 0.0086,0.65826 q -0.154886,0.004 -0.21512,0.0495 -0.05808,0.0452 -0.05808,0.12692 0,0.0753 0.04087,0.11186 0.04302,0.0344 0.114013,0.0344 0.101107,0 0.169945,-0.0602 0.07099,-0.0602 0.07099,-0.1721 v -0.0968 z m 1.079905,0.5378 h -0.324831 v -1.63491 h 0.324831 z m 1.708054,-0.34634 q 0,0.16779 -0.120467,0.2689 -0.118316,0.099 -0.365704,0.099 -0.12477,0 -0.219423,-0.0172 -0.09465,-0.0151 -0.182852,-0.0516 v -0.2689 q 0.09465,0.0452 0.202213,0.071 0.109711,0.0258 0.191457,0.0258 0.09896,0 0.141979,-0.028 0.04518,-0.028 0.04518,-0.0753 0,-0.0323 -0.02366,-0.0581 -0.02151,-0.0258 -0.07959,-0.0538 -0.05593,-0.028 -0.16134,-0.0688 -0.157038,-0.0624 -0.238783,-0.13767 -0.07959,-0.0774 -0.07959,-0.22373 0,-0.16349 0.126921,-0.24739 0.129072,-0.0839 0.33989,-0.0839 0.111862,0 0.210817,0.0237 0.09896,0.0237 0.200062,0.0667 l -0.09465,0.22157 q -0.08175,-0.0366 -0.167794,-0.0602 -0.08605,-0.0237 -0.152735,-0.0237 -0.154886,0 -0.154886,0.0861 0,0.0323 0.02151,0.0559 0.02366,0.0215 0.07959,0.0473 0.05808,0.0258 0.16134,0.0667 0.105409,0.043 0.176399,0.0882 0.07314,0.0452 0.10756,0.11186 0.03657,0.0645 0.03657,0.16564 z m 1.331594,-0.24308 q 0,0.29256 -0.154886,0.45175 -0.152736,0.15919 -0.417333,0.15919 -0.165643,0 -0.294715,-0.071 -0.12692,-0.071 -0.200061,-0.20652 -0.07314,-0.13768 -0.07314,-0.33343 0,-0.29257 0.152735,-0.44961 0.154887,-0.15703 0.421635,-0.15703 0.165643,0 0.292564,0.071 0.12692,0.0688 0.200061,0.20436 0.07314,0.13553 0.07314,0.33129 z m -0.808851,0 q 0,0.17209 0.05593,0.2689 0.05593,0.0947 0.185003,0.0947 0.12477,0 0.180701,-0.0947 0.05593,-0.0968 0.05593,-0.2689 0,-0.17425 -0.05593,-0.26675 -0.05593,-0.0925 -0.182852,-0.0925 -0.126921,0 -0.182852,0.0925 -0.05593,0.0925 -0.05593,0.26675 z m 2.1512,-0.58513 v 1.17455 h -0.249539 l -0.04087,-0.15058 h -0.01936 q -0.05593,0.0904 -0.152736,0.13122 -0.0968,0.0409 -0.208666,0.0409 -0.187154,0 -0.303319,-0.10111 -0.114014,-0.10326 -0.114014,-0.32913 v -0.76583 h 0.326983 v 0.68408 q 0,0.12477 0.04302,0.18931 0.04518,0.0624 0.141979,0.0624 0.146281,0 0.19791,-0.099 0.05378,-0.099 0.05378,-0.28611 v -0.55071 z m 0.9874,-0.0215 q 0.193608,0 0.305471,0.10325 0.111862,0.10111 0.111862,0.32699 v 0.76582 h -0.32268 v -0.68408 q 0,-0.25384 -0.189305,-0.25384 -0.146282,0 -0.200062,0.10111 -0.05163,0.099 -0.05163,0.28611 v 0.5507 h -0.324831 v -1.17455 h 0.249539 l 0.04518,0.15704 h 0.01291 q 0.116164,-0.17855 0.363552,-0.17855 z m 1.11217,1.21758 q -0.195759,0 -0.318378,-0.15274 -0.122618,-0.15489 -0.122618,-0.4539 0,-0.30332 0.12477,-0.45606 0.124769,-0.15488 0.326982,-0.15488 0.12477,0 0.202213,0.0495 0.07744,0.0495 0.126921,0.12262 h 0.01076 q -0.0065,-0.0387 -0.01291,-0.10756 -0.0043,-0.071 -0.0043,-0.12907 v -0.37431 h 0.326982 v 1.63491 h -0.249539 l -0.06454,-0.15273 h -0.01291 q -0.04518,0.0731 -0.12477,0.12477 -0.07959,0.0495 -0.208666,0.0495 z m 0.114014,-0.2603 q 0.131223,0 0.185003,-0.0753 0.05378,-0.0774 0.05593,-0.23448 v -0.0344 q 0,-0.16995 -0.05163,-0.2603 -0.05163,-0.0904 -0.191457,-0.0904 -0.105408,0 -0.165642,0.0904 -0.05808,0.0904 -0.05808,0.26245 0,0.1721 0.05808,0.25814 0.06023,0.0839 0.167794,0.0839 z"
         id="path2" /></g><g
       id="text1"
       style="font-weight:bold;font-size:2.11667px;-inkscape-font-specification:'sans-serif Bold';text-align:center;text-anchor:middle;fill:#4e4e4e;stroke-width:0.264583"
       aria-label="DIGIRACK&#10;live code rack&#10;"
       transform="translate(7.9375004,3.1750001)"><path
         style="font-style:italic;font-weight:normal;-inkscape-font-specification:'sans-serif Italic'"
         d="m 10.859365,104.87769 0.319617,-1.5113 h 0.357717 q 0.273051,0 0.427568,0.14817 0.154516,0.14816 0.154516,0.45508 0,0.26247 -0.103716,0.46779 -0.101601,0.20531 -0.300568,0.32385 -0.19685,0.11641 -0.4826,0.11641 z m 0.383117,-0.16298 q 0.220134,0 0.370417,-0.0995 0.150284,-0.0995 0.228601,-0.26882 0.07832,-0.16933 0.07832,-0.37888 0,-0.23284 -0.112183,-0.33444 -0.110067,-0.10372 -0.294217,-0.10372 h -0.179917 l -0.251884,1.18534 z m 0.899584,0.16298 0.02117,-0.10371 0.179917,-0.0423 0.258234,-1.2192 -0.160867,-0.0402 0.02117,-0.10583 h 0.529167 l -0.02117,0.10583 -0.182033,0.0402 -0.258234,1.2192 0.162984,0.0423 -0.02117,0.10371 z m 1.454151,0.0212 q -0.268817,0 -0.421217,-0.15028 -0.1524,-0.15029 -0.1524,-0.4191 0,-0.20744 0.05715,-0.38524 0.05927,-0.17992 0.167217,-0.31327 0.110067,-0.13546 0.258233,-0.20955 0.150284,-0.0762 0.332318,-0.0762 0.137583,0 0.2413,0.0233 0.103717,0.0233 0.19685,0.0656 l -0.07197,0.1651 q -0.07832,-0.036 -0.169334,-0.0614 -0.09102,-0.0254 -0.198967,-0.0254 -0.173567,0 -0.313267,0.10372 -0.137584,0.10371 -0.218017,0.28575 -0.08043,0.17992 -0.08043,0.41487 0,0.11641 0.04022,0.21166 0.04233,0.0931 0.129117,0.14817 0.08678,0.055 0.22225,0.055 0.08043,0 0.14605,-0.0106 0.06773,-0.0127 0.114301,-0.0275 l 0.09737,-0.44661 h -0.296333 l 0.03598,-0.1651 h 0.484717 l -0.160866,0.73871 q -0.09525,0.0339 -0.201084,0.0572 -0.105834,0.0212 -0.239184,0.0212 z m 0.66675,-0.0212 0.02117,-0.10371 0.179917,-0.0423 0.258234,-1.2192 -0.160867,-0.0402 0.02117,-0.10583 h 0.529168 l -0.02117,0.10583 -0.182033,0.0402 -0.258234,1.2192 0.162984,0.0423 -0.02117,0.10371 z m 0.814917,0 0.319617,-1.5113 h 0.332317 q 0.465668,0 0.465668,0.38312 0,0.16298 -0.08678,0.28363 -0.08467,0.12065 -0.289983,0.1778 l 0.249767,0.66675 h -0.207434 l -0.2159,-0.62441 h -0.247651 l -0.131233,0.62441 z m 0.518584,-0.78528 q 0.211667,0 0.306917,-0.091 0.09737,-0.0931 0.09737,-0.23918 0,-0.12912 -0.07197,-0.17992 -0.07197,-0.0508 -0.2159,-0.0508 h -0.160867 l -0.12065,0.56092 z m 0.486834,0.78528 0.821268,-1.5113 h 0.198967 l 0.186267,1.5113 h -0.186267 l -0.05715,-0.4699 h -0.510118 l -0.245533,0.4699 z m 0.543984,-0.63923 h 0.400051 l -0.03387,-0.3175 q -0.0085,-0.0804 -0.01693,-0.1778 -0.0064,-0.0974 -0.0085,-0.17145 h -0.0064 q -0.03387,0.0804 -0.07832,0.17356 -0.04445,0.091 -0.09313,0.18416 z m 1.413935,0.6604 q -0.251883,0 -0.395817,-0.15452 -0.141817,-0.15451 -0.141817,-0.42333 0,-0.13547 0.03175,-0.27517 0.03175,-0.1397 0.09525,-0.26458 0.06562,-0.12489 0.162984,-0.22225 0.09948,-0.0995 0.230717,-0.15664 0.131234,-0.0572 0.296334,-0.0572 0.211667,0 0.3683,0.0847 l -0.0762,0.15663 q -0.05715,-0.0296 -0.129117,-0.0508 -0.06985,-0.0233 -0.162983,-0.0233 -0.15875,0 -0.275167,0.072 -0.1143,0.0698 -0.190501,0.18838 -0.0762,0.11642 -0.1143,0.25824 -0.03598,0.14181 -0.03598,0.28575 0,0.19261 0.09737,0.3048 0.09948,0.11006 0.27305,0.11006 0.08678,0 0.169334,-0.0169 0.08467,-0.0169 0.1651,-0.0444 v 0.1651 q -0.08255,0.0296 -0.167217,0.0466 -0.08255,0.0169 -0.201084,0.0169 z m 0.639235,-0.0212 0.319617,-1.5113 h 0.188383 l -0.156633,0.73449 0.131233,-0.1397 0.579968,-0.59479 h 0.2286 l -0.656167,0.66464 0.357717,0.84666 H 19.46574 l -0.294217,-0.73236 -0.175684,0.12911 -0.127,0.60325 z"
         id="path5" /><path
         style="font-style:italic;font-weight:normal;-inkscape-font-specification:'sans-serif Italic'"
         d="m 8.9956332,107.52353 0.3429005,-1.60867 h 0.1862669 l -0.3429005,1.60867 z m 0.9398002,-1.32292 q -0.04445,0 -0.074084,-0.0254 -0.027517,-0.0275 -0.027517,-0.0741 0,-0.055 0.03175,-0.0952 0.033867,-0.0402 0.093133,-0.0402 0.097367,0 0.097367,0.0953 0,0.0656 -0.0381,0.10372 -0.0381,0.036 -0.08255,0.036 z m -0.391584,1.32292 0.2413004,-1.13453 h 0.186267 l -0.2413004,1.13453 z m 0.7196666,0 -0.131234,-1.13453 h 0.186267 l 0.0635,0.63076 q 0.0063,0.055 0.01058,0.12912 0.0063,0.0741 0.0085,0.1397 0.0042,0.0635 0.0042,0.0931 h 0.0063 q 0.02328,-0.0529 0.05503,-0.12065 0.03175,-0.0677 0.0635,-0.13546 0.03387,-0.0677 0.05715,-0.11219 L 10.9218,106.389 h 0.198967 l -0.613834,1.13453 z m 1.267887,0.0212 q -0.19685,0 -0.3048,-0.1143 -0.105834,-0.11642 -0.105834,-0.31327 0,-0.13547 0.0381,-0.2667 0.04022,-0.13335 0.114301,-0.2413 0.07408,-0.11007 0.1778,-0.17568 0.105833,-0.0656 0.237067,-0.0656 0.160867,0 0.2413,0.0699 0.08255,0.0699 0.08255,0.19473 0,0.11007 -0.06985,0.20109 -0.06773,0.091 -0.213783,0.14605 -0.146051,0.0529 -0.378884,0.0529 h -0.03598 q -0.0021,0.019 -0.0042,0.0402 0,0.0212 0,0.0381 0,0.12912 0.0635,0.20532 0.0635,0.0741 0.192617,0.0741 0.08043,0 0.1524,-0.0233 0.07197,-0.0233 0.156634,-0.0635 v 0.15875 q -0.08043,0.036 -0.15875,0.0593 -0.0762,0.0233 -0.184151,0.0233 z m -0.175683,-0.66252 q 0.127,0 0.23495,-0.0212 0.10795,-0.0233 0.173567,-0.0741 0.06562,-0.0529 0.06562,-0.1397 0,-0.055 -0.0381,-0.0889 -0.03598,-0.036 -0.1143,-0.036 -0.101601,0 -0.196851,0.0952 -0.09313,0.0931 -0.1397,0.26458 z m 1.792821,0.66252 q -0.188384,0 -0.304801,-0.10584 -0.116417,-0.10583 -0.116417,-0.3175 0,-0.1524 0.04022,-0.28786 0.04233,-0.13759 0.118534,-0.2413 0.07832,-0.10372 0.188383,-0.16299 0.110067,-0.0614 0.245534,-0.0614 0.07408,0 0.148167,0.0148 0.07408,0.0148 0.13335,0.0402 l -0.05292,0.15452 q -0.04233,-0.0191 -0.1016,-0.036 -0.05715,-0.0169 -0.124883,-0.0169 -0.120651,0 -0.211667,0.0825 -0.09102,0.0804 -0.141817,0.2159 -0.0508,0.13547 -0.0508,0.29634 0,0.12911 0.06562,0.20108 0.06773,0.0699 0.184151,0.0699 0.07408,0 0.1397,-0.0212 0.06773,-0.0212 0.13335,-0.0487 v 0.15663 q -0.05927,0.0296 -0.13335,0.0487 -0.07197,0.0191 -0.15875,0.0191 z m 0.960966,-0.004 q -0.196851,0 -0.311151,-0.11641 -0.112183,-0.11854 -0.112183,-0.31962 0,-0.13123 0.03598,-0.26035 0.03598,-0.12912 0.105834,-0.23495 0.07197,-0.10583 0.1778,-0.16933 0.10795,-0.0656 0.24765,-0.0656 0.198967,0 0.311151,0.11853 0.112183,0.11642 0.112183,0.31962 0,0.12912 -0.03598,0.25823 -0.03598,0.12912 -0.10795,0.23495 -0.06985,0.10584 -0.175684,0.17145 -0.105833,0.0635 -0.24765,0.0635 z m 0.01058,-0.15451 q 0.1016,0 0.18415,-0.0698 0.08255,-0.072 0.131234,-0.20532 0.0508,-0.13335 0.0508,-0.31962 0,-0.0635 -0.02328,-0.12276 -0.02117,-0.0614 -0.07197,-0.0995 -0.0508,-0.0402 -0.135467,-0.0402 -0.116417,0 -0.2032,0.0804 -0.08467,0.0783 -0.131234,0.21167 -0.04657,0.13123 -0.04657,0.28998 0,0.13123 0.0635,0.2032 0.06562,0.072 0.182033,0.072 z m 1.064685,0.15875 q -0.135467,0 -0.222251,-0.0974 -0.08467,-0.0974 -0.08467,-0.28998 0,-0.15664 0.0381,-0.29634 0.0381,-0.14181 0.110066,-0.25188 0.07408,-0.11218 0.175684,-0.17568 0.103717,-0.0635 0.232834,-0.0635 0.1143,0 0.182033,0.0593 0.06985,0.0572 0.103717,0.13547 h 0.01058 q 0.01058,-0.072 0.01905,-0.13758 0.01058,-0.0656 0.02752,-0.14182 l 0.07832,-0.37042 h 0.18415 l -0.340784,1.60867 h -0.1524 l 0.02328,-0.20955 h -0.0085 q -0.0762,0.0952 -0.167217,0.16298 -0.09102,0.0677 -0.20955,0.0677 z m 0.0635,-0.15452 q 0.06985,0 0.141817,-0.0508 0.07197,-0.0529 0.13335,-0.14182 0.06138,-0.0889 0.09737,-0.2032 0.0381,-0.1143 0.0381,-0.2413 0,-0.1016 -0.0508,-0.1651 -0.04868,-0.0635 -0.160867,-0.0635 -0.08467,0 -0.154517,0.055 -0.06773,0.0529 -0.118534,0.14393 -0.0508,0.091 -0.07832,0.20532 -0.02752,0.1143 -0.02752,0.23283 0,0.2286 0.179917,0.2286 z m 1.26577,0.15452 q -0.196851,0 -0.304801,-0.1143 -0.105833,-0.11642 -0.105833,-0.31327 0,-0.13547 0.0381,-0.2667 0.04022,-0.13335 0.1143,-0.2413 0.07408,-0.11007 0.1778,-0.17568 0.105834,-0.0656 0.237067,-0.0656 0.160867,0 0.2413,0.0699 0.08255,0.0699 0.08255,0.19473 0,0.11007 -0.06985,0.20109 -0.06773,0.091 -0.213783,0.14605 -0.14605,0.0529 -0.378884,0.0529 h -0.03598 q -0.0021,0.019 -0.0042,0.0402 0,0.0212 0,0.0381 0,0.12912 0.0635,0.20532 0.0635,0.0741 0.192617,0.0741 0.08043,0 0.1524,-0.0233 0.07197,-0.0233 0.156634,-0.0635 v 0.15875 q -0.08043,0.036 -0.15875,0.0593 -0.0762,0.0233 -0.18415,0.0233 z m -0.175684,-0.66252 q 0.127,0 0.23495,-0.0212 0.10795,-0.0233 0.173567,-0.0741 0.06562,-0.0529 0.06562,-0.1397 0,-0.055 -0.0381,-0.0889 -0.03598,-0.036 -0.1143,-0.036 -0.1016,0 -0.196851,0.0952 -0.09313,0.0931 -0.1397,0.26458 z m 1.329271,0.64135 0.2413,-1.13453 h 0.1524 l -0.02328,0.20955 h 0.01058 q 0.04445,-0.0593 0.09313,-0.11007 0.04868,-0.0529 0.110067,-0.0868 0.06138,-0.0339 0.141816,-0.0339 0.02963,0 0.06138,0.004 0.03387,0.002 0.06138,0.0106 l -0.04022,0.16721 q -0.05715,-0.0127 -0.107951,-0.0127 -0.105833,0 -0.188383,0.0699 -0.08255,0.0699 -0.137584,0.1778 -0.05503,0.10795 -0.07832,0.22014 l -0.110066,0.51858 z m 1.149351,0.0212 q -0.135466,0 -0.22225,-0.0974 -0.08467,-0.0995 -0.08467,-0.28998 0,-0.15875 0.04022,-0.30057 0.04233,-0.14393 0.116417,-0.25188 0.07408,-0.11007 0.175684,-0.17357 0.1016,-0.0635 0.224367,-0.0635 0.112183,0 0.182033,0.0593 0.06985,0.0593 0.103717,0.13758 h 0.01058 l 0.06773,-0.17568 h 0.141817 l -0.241301,1.13453 h -0.148167 l 0.02752,-0.20955 h -0.0085 q -0.07197,0.0931 -0.169333,0.16298 -0.09737,0.0677 -0.215901,0.0677 z m 0.06138,-0.15452 q 0.07832,0 0.1524,-0.0572 0.0762,-0.0571 0.137584,-0.15452 0.06138,-0.0974 0.09313,-0.21801 0.01693,-0.0614 0.02117,-0.11219 0.0063,-0.0529 0.0063,-0.0974 0,-0.0995 -0.05503,-0.16299 -0.05503,-0.0635 -0.148166,-0.0635 -0.08255,0 -0.152401,0.0529 -0.06985,0.0508 -0.122767,0.14182 -0.05292,0.0889 -0.08255,0.2032 -0.02752,0.1143 -0.02752,0.23918 0,0.1143 0.04657,0.17145 0.04657,0.0572 0.131234,0.0572 z m 1.255187,0.15452 q -0.188383,0 -0.3048,-0.10584 -0.116417,-0.10583 -0.116417,-0.3175 0,-0.1524 0.04022,-0.28786 0.04233,-0.13759 0.118533,-0.2413 0.07832,-0.10372 0.188384,-0.16299 0.110067,-0.0614 0.245533,-0.0614 0.07408,0 0.148167,0.0148 0.07408,0.0148 0.133351,0.0402 l -0.05292,0.15452 q -0.04233,-0.0191 -0.1016,-0.036 -0.05715,-0.0169 -0.124884,-0.0169 -0.12065,0 -0.211667,0.0825 -0.09102,0.0804 -0.141817,0.2159 -0.0508,0.13547 -0.0508,0.29634 0,0.12911 0.06562,0.20108 0.06773,0.0699 0.18415,0.0699 0.07408,0 0.1397,-0.0212 0.06773,-0.0212 0.133351,-0.0487 v 0.15663 q -0.05927,0.0296 -0.133351,0.0487 -0.07197,0.0191 -0.15875,0.0191 z m 0.493182,-0.0212 0.340784,-1.60867 h 0.188383 l -0.137583,0.63924 q -0.03598,0.16933 -0.0635,0.26246 -0.0254,0.091 -0.03598,0.12065 h 0.0042 l 0.537634,-0.54821 H 21.6808 l -0.486834,0.48683 0.302684,0.6477 h -0.20528 l -0.239184,-0.53128 -0.1524,0.12065 -0.08467,0.41063 z"
         id="path6" /></g><g
       style="font-size:3.58533px;text-align:center;text-anchor:middle;display:inline;fill:#000000;stroke-width:0.268899"
       id="g1"
       transform="matrix(0.0232867,0,0,0.05514567,30.470541,65.821899)"><path
         d="m 416,48 v 416 c 0,26.51 -21.49,48 -48,48 H 144 C 117.49,512 96,490.51 96,464 V 48 C 96,21.49 117.49,0 144,0 h 224 c 26.51,0 48,21.49 48,48 z m 96,58 v 12 a 6,6 0 0 1 -6,6 h -18 v 6 a 6,6 0 0 1 -6,6 H 440 V 88 h 42 a 6,6 0 0 1 6,6 v 6 h 18 a 6,6 0 0 1 6,6 z m 0,96 v 12 a 6,6 0 0 1 -6,6 h -18 v 6 a 6,6 0 0 1 -6,6 h -42 v -48 h 42 a 6,6 0 0 1 6,6 v 6 h 18 a 6,6 0 0 1 6,6 z m 0,96 v 12 a 6,6 0 0 1 -6,6 h -18 v 6 a 6,6 0 0 1 -6,6 h -42 v -48 h 42 a 6,6 0 0 1 6,6 v 6 h 18 a 6,6 0 0 1 6,6 z m 0,96 v 12 a 6,6 0 0 1 -6,6 h -18 v 6 a 6,6 0 0 1 -6,6 h -42 v -48 h 42 a 6,6 0 0 1 6,6 v 6 h 18 a 6,6 0 0 1 6,6 z M 30,376 h 42 v 48 H 30 a 6,6 0 0 1 -6,-6 v -6 H 6 a 6,6 0 0 1 -6,-6 v -12 a 6,6 0 0 1 6,-6 h 18 v -6 a 6,6 0 0 1 6,-6 z m 0,-96 h 42 v 48 H 30 a 6,6 0 0 1 -6,-6 v -6 H 6 a 6,6 0 0 1 -6,-6 v -12 a 6,6 0 0 1 6,-6 h 18 v -6 a 6,6 0 0 1 6,-6 z m 0,-96 h 42 v 48 H 30 a 6,6 0 0 1 -6,-6 v -6 H 6 a 6,6 0 0 1 -6,-6 v -12 a 6,6 0 0 1 6,-6 h 18 v -6 a 6,6 0 0 1 6,-6 z m 0,-96 h 42 v 48 H 30 a 6,6 0 0 1 -6,-6 v -6 H 6 a 6,6 0 0 1 -6,-6 v -12 a 6,6 0 0 1 6,-6 h 18 v -6 a 6,6 0 0 1 6,-6 z"
         id="path1-5" /></g><path
       style="font-style:italic;font-size:2.11667px;-inkscape-font-specification:'sans-serif Italic';text-align:center;text-anchor:middle;fill:#ffffff;stroke-width:0.264583"
       d="m 34.044856,80.471554 q -0.251884,0 -0.395817,-0.154517 -0.141817,-0.154516 -0.141817,-0.423334 0,-0.135466 0.03175,-0.275167 0.03175,-0.1397 0.09525,-0.264583 0.06562,-0.124884 0.162984,-0.222251 0.09948,-0.09948 0.230717,-0.156633 0.131233,-0.05715 0.296333,-0.05715 0.211667,0 0.368301,0.08467 l -0.0762,0.156634 q -0.05715,-0.02963 -0.129117,-0.0508 -0.06985,-0.02328 -0.162984,-0.02328 -0.15875,0 -0.275167,0.07197 -0.1143,0.06985 -0.1905,0.188384 -0.0762,0.116417 -0.1143,0.258234 -0.03598,0.141817 -0.03598,0.28575 0,0.192617 0.09737,0.304801 0.09948,0.110066 0.273051,0.110066 0.08678,0 0.169333,-0.01693 0.08467,-0.01693 0.1651,-0.04445 v 0.1651 q -0.08255,0.02963 -0.167216,0.04657 -0.08255,0.01693 -0.201084,0.01693 z m 0.611717,-0.02117 0.340784,-1.608669 h 0.186267 l -0.09102,0.416983 q -0.0127,0.0635 -0.03175,0.133351 -0.01905,0.06773 -0.03598,0.135467 h 0.01058 q 0.04022,-0.05292 0.09525,-0.105834 0.05503,-0.05292 0.124884,-0.0889 0.07197,-0.03598 0.162983,-0.03598 0.131234,0 0.207434,0.07408 0.07832,0.07197 0.07832,0.2159 0,0.04022 -0.0064,0.08255 -0.0063,0.04233 -0.01693,0.09102 l -0.148167,0.690035 h -0.186267 l 0.150283,-0.711201 q 0.01905,-0.09525 0.01905,-0.139701 0,-0.06985 -0.03598,-0.10795 -0.03387,-0.04022 -0.112184,-0.04022 -0.07197,0 -0.156633,0.0508 -0.08255,0.04868 -0.154517,0.160866 -0.06985,0.112184 -0.110067,0.298451 l -0.103717,0.488951 z m 1.566337,0.02117 q -0.129117,0 -0.207433,-0.07197 -0.0762,-0.07197 -0.0762,-0.209551 0,-0.04868 0.0064,-0.09102 0.0085,-0.04445 0.01693,-0.09102 l 0.148167,-0.692151 h 0.188383 l -0.1524,0.713317 q -0.01905,0.09102 -0.01905,0.141817 0,0.06773 0.03387,0.10795 0.03598,0.0381 0.1143,0.0381 0.07197,0 0.154517,-0.0508 0.08467,-0.0508 0.156633,-0.162983 0.07197,-0.112184 0.112184,-0.298451 l 0.103717,-0.48895 h 0.18415 l -0.2413,1.134535 h -0.152401 l 0.02328,-0.209551 h -0.01058 q -0.04022,0.0508 -0.09525,0.105834 -0.05292,0.05292 -0.124883,0.0889 -0.06985,0.03598 -0.162984,0.03598 z m 1.34832,0 q -0.188384,0 -0.304801,-0.105833 -0.116416,-0.105834 -0.116416,-0.317501 0,-0.1524 0.04022,-0.287867 0.04233,-0.137583 0.118534,-0.2413 0.07832,-0.103717 0.188383,-0.162984 0.110067,-0.06138 0.245534,-0.06138 0.07408,0 0.148167,0.01482 0.07408,0.01482 0.13335,0.04022 l -0.05292,0.154517 q -0.04233,-0.01905 -0.1016,-0.03598 -0.05715,-0.01693 -0.124883,-0.01693 -0.12065,0 -0.211667,0.08255 -0.09102,0.08043 -0.141817,0.2159 -0.0508,0.135467 -0.0508,0.296334 0,0.129117 0.06562,0.201083 0.06773,0.06985 0.18415,0.06985 0.07408,0 0.1397,-0.02117 0.06773,-0.02117 0.13335,-0.04868 v 0.156634 q -0.05927,0.02963 -0.13335,0.04868 -0.07197,0.01905 -0.15875,0.01905 z m 0.522816,-0.02117 0.319617,-1.511303 h 0.188383 l -0.156633,0.734485 0.131233,-0.1397 0.579968,-0.594785 h 0.2286 l -0.656167,0.664635 0.357717,0.846668 H 38.87933 l -0.294217,-0.732368 -0.175684,0.129117 -0.127,0.603251 z"
       id="text3"
       aria-label="ChucK"
       inkscape:label="text3" /><text
       xml:space="preserve"
       transform="scale(0.26458333)"
       id="text2"
       style="font-style:normal;font-variant:normal;font-weight:normal;font-stretch:normal;font-size:8px;font-family:sans-serif;-inkscape-font-specification:sans-serif;text-align:center;writing-mode:lr-tb;direction:ltr;white-space:pre;shape-inside:url(#rect2);display:inline;fill:#4e4e4e" /><path
       style="font-weight:bold;font-size:8px;-inkscape-font-specification:'sans-serif Bold';text-align:center;text-anchor:middle;white-space:pre;fill:#4e4e4e;stroke-width:0.49837"
       d="m 14.329401,6.9050063 q -0.338418,0 -0.535173,0.2625677 -0.19282,0.2585282 -0.19282,0.714992 0,0.4564639 0.18495,0.7109525 0.188885,0.2504492 0.566654,0.2504492 0.184949,0 0.354158,-0.044434 0.173145,-0.044435 0.346289,-0.1131061 v 0.5251349 q -0.334483,0.1454221 -0.767344,0.1454221 -0.448601,0 -0.739798,-0.1817776 -0.287262,-0.1858172 -0.428926,-0.5170564 -0.137728,-0.3352788 -0.137728,-0.7796241 0,-0.4362663 0.157404,-0.7715451 0.157404,-0.3352787 0.460406,-0.5251354 0.303003,-0.1898566 0.739799,-0.1898566 0.20856,0 0.421055,0.048474 0.21643,0.044435 0.40925,0.1413826 L 14.970822,7.0746654 Q 14.829159,7.0059939 14.667819,6.9575198 14.510416,6.9050063 14.329401,6.9050063 Z m 3.616355,2.4115833 h -0.5942 V 8.0724227 h -1.113632 v 1.2441669 h -0.5942 V 6.4323844 h 0.5942 v 1.1310609 h 1.113632 V 6.4323844 h 0.5942 z m 1.550425,-2.8842052 q 1.097891,0 1.097891,0.8402167 0,0.2948837 -0.145599,0.4807008 -0.145598,0.1858172 -0.362028,0.2908442 l 0.798824,1.2724435 H 20.196627 L 19.570947,8.2097658 H 19.236464 V 9.3165896 H 18.634395 V 6.4323844 Z m -0.01181,0.4807009 H 19.23646 v 0.8200191 h 0.247911 q 0.240041,0 0.369899,-0.1009876 0.129858,-0.1009875 0.129858,-0.3312392 0,-0.1938962 -0.121988,-0.2908442 -0.118052,-0.096948 -0.377769,-0.096948 z m 2.628644,0.7271105 0.578459,-1.2078114 H 23.3447 L 22.416022,8.1936077 V 9.3165896 H 21.810017 V 8.2138053 L 20.881335,6.4323844 h 0.653225 z m 3.24252,0.8765722 q 0,0.3837528 -0.271522,0.6140045 -0.267586,0.2262121 -0.763408,0.2262121 -0.444666,0 -0.794889,-0.1736986 V 8.6137161 q 0.20069,0.088869 0.413185,0.1656196 0.21643,0.072711 0.428925,0.072711 0.220365,0 0.310873,-0.08483 0.09444,-0.088869 0.09444,-0.2221727 0,-0.1090666 -0.07477,-0.1858171 -0.07083,-0.076751 -0.19282,-0.1413826 Q 24.383566,8.1491732 24.226163,8.0724227 24.127785,8.0239486 24.013668,7.9593166 23.89955,7.890645 23.793302,7.7936969 23.69099,7.6927094 23.624093,7.5513268 q -0.0669,-0.1413826 -0.0669,-0.3393183 0,-0.3877923 0.255781,-0.6018859 0.255781,-0.2181332 0.696511,-0.2181332 0.220366,0 0.41712,0.052513 0.20069,0.052514 0.41712,0.1494616 l -0.192819,0.4766614 q -0.19282,-0.08079 -0.346288,-0.1252246 -0.153469,-0.044435 -0.314808,-0.044435 -0.169209,0 -0.259716,0.08079 -0.09051,0.08079 -0.09051,0.2100542 0,0.1535011 0.133793,0.2423702 0.133793,0.088869 0.397444,0.2181331 0.216431,0.1050271 0.365964,0.2181332 0.153469,0.1131061 0.236106,0.2666072 0.08264,0.1535011 0.08264,0.3797133 z m 2.231201,0.7998216 -0.21643,-0.6786365 h -0.991644 l -0.21643,0.6786365 H 25.512941 L 26.50065,6.4202659 h 0.739797 l 0.995579,2.8963237 z M 27.035823,7.4947737 q -0.01574,-0.060592 -0.05116,-0.1817776 -0.03148,-0.1211851 -0.06296,-0.2464097 -0.03148,-0.1292641 -0.05116,-0.2100542 -0.01574,0.092909 -0.04722,0.2140937 -0.02754,0.1171456 -0.05509,0.2342912 -0.02755,0.1131061 -0.04722,0.1898566 l -0.20069,0.626123 h 0.712252 z m 1.534684,1.8218159 V 6.4323844 h 0.602069 v 2.3752278 h 1.137243 v 0.5089774 z m 3.270064,0 H 30.561665 V 8.9691923 L 30.904018,8.8076122 V 6.9413618 L 30.561665,6.7797817 V 6.4323844 h 1.278906 v 0.3473973 l -0.342353,0.1615801 v 1.8662504 l 0.342353,0.1615801 z M 33.977327,8.516768 q 0,0.3837528 -0.271522,0.6140045 -0.267586,0.2262121 -0.763408,0.2262121 -0.444666,0 -0.794889,-0.1736986 V 8.6137161 q 0.20069,0.088869 0.413185,0.1656196 0.21643,0.072711 0.428925,0.072711 0.220365,0 0.310873,-0.08483 0.09444,-0.088869 0.09444,-0.2221727 0,-0.1090666 -0.07477,-0.1858171 -0.07083,-0.076751 -0.19282,-0.1413826 Q 33.005358,8.1491732 32.847955,8.0724227 32.749577,8.0239486 32.63546,7.9593166 32.521342,7.890645 32.415094,7.7936969 32.312782,7.6927094 32.245885,7.5513268 q -0.0669,-0.1413826 -0.0669,-0.3393183 0,-0.3877923 0.255781,-0.6018859 0.255781,-0.2181332 0.696511,-0.2181332 0.220366,0 0.41712,0.052513 0.20069,0.052514 0.41712,0.1494616 l -0.192819,0.4766614 q -0.19282,-0.08079 -0.346288,-0.1252246 -0.153469,-0.044435 -0.314808,-0.044435 -0.169209,0 -0.259716,0.08079 -0.09051,0.08079 -0.09051,0.2100542 0,0.1535011 0.133793,0.2423702 0.133793,0.088869 0.397444,0.2181331 0.216431,0.1050271 0.365964,0.2181332 0.153469,0.1131061 0.236106,0.2666072 0.08264,0.1535011 0.08264,0.3797133 z"
       id="text5"
       aria-label="CHRYSALIS" /></g></svg>
